<svg width="164" height="161" viewBox="0 0 164 161" fill="none" xmlns="http://www.w3.org/2000/svg"><g clip-path="url(#clip0_1_43)"><path d="M146.215 31.1976C138.721 14.6216 141.03 3.60374 136.819 0.752918C132.607 -2.09791 123.272 4.15957 105.151 3.37066C79.8897 2.27694 42.1436 -4.53635 15.1568 33.3312C-10.8212 69.7913 -0.327368 107.775 23.4741 123.912C37.0914 133.137 43.6744 129.184 48.2223 132.259C52.7702 135.342 51.5669 142.945 65.1842 152.169C88.9856 168.297 128.05 163.887 152.082 126.109C177.051 86.8694 156.656 54.2911 146.215 31.1976Z" fill="#50282B"></path><path d="M30.3402 97.6453C30.4198 96.3723 30.4198 92.4905 30.4198 87.4164C30.4198 77.2682 30.3402 62.5927 30.3402 55.6898V51.9604C30.3402 48.9482 30.3402 47.8365 35.9765 47.8365C41.1438 47.8365 42.7099 48.7061 43.4885 53.3858C44.5061 59.1771 48.9655 81.5444 48.9655 81.5444C48.8859 69.8811 48.8062 53.8609 48.8062 52.1218C48.8062 48.3924 49.9034 47.9172 53.8143 47.9172C57.7252 47.9172 58.1233 48.8675 58.1233 52.5162V99.7879C58.1233 103.123 57.8844 103.75 53.1949 103.75C49.2044 103.75 45.6829 103.67 44.3468 97.2419C43.3293 91.8451 39.0202 69.0026 39.0202 69.0026C38.9406 75.6635 38.9406 83.9918 38.9406 90.0252C38.9406 94.5435 38.9406 97.8784 39.0202 98.5866C39.4095 102.63 39.3299 103.661 34.3219 103.661C30.3314 103.661 30.2517 103.266 30.3314 97.6364L30.3402 97.6453Z" fill="#FEC800"></path><path d="M83.1016 52.4355C82.8627 56.398 82.553 56.6401 77.8546 56.6401H70.3426C70.3426 61.7142 70.4222 65.7573 70.4222 70.9928C71.9883 70.9121 74.8817 70.9121 77.2353 70.9121C81.5443 70.9121 82.1637 71.701 82.1637 74.8746C82.1637 78.0482 81.6151 79.4736 76.2885 79.6349C75.271 79.7156 74.0146 79.7156 73.1563 79.7156H70.1833V95.0993C72.298 95.0186 76.7575 94.938 78.7129 94.938C82.3141 94.938 82.9423 95.0186 82.9423 98.748C82.9423 101.922 83.4113 103.903 74.8817 103.741C66.9715 103.661 60.7955 103.428 60.7955 100.81C60.7955 100.496 60.7158 98.506 60.7158 95.5745C60.6362 86.8517 60.4769 70.1949 60.4769 61.7859C60.4769 58.8544 60.5566 56.7118 60.5566 55.7615C60.6362 49.8088 61.2644 48.3834 65.6442 48.1503H75.8196C82.3141 48.1503 83.1812 48.1503 83.1016 52.4355Z" fill="#FEC800"></path><path d="M129.519 48.0696C132.651 48.231 133.669 48.3834 133.669 50.6067C133.669 51.799 133.509 52.2742 133.279 53.4665L133.04 54.6588C132.333 58.1462 128.891 77.8151 126.776 90.1149V90.0342L125.051 100.111C124.661 102.173 122.467 103.679 118.007 103.679C113.548 103.679 112.84 102.89 112.451 98.4432C112.212 95.5834 110.416 77.824 109.319 67.3531C108.611 71.952 107.991 77.0262 107.363 82.1092C106.107 91.7106 104.78 100.433 104.62 100.989C104.151 102.495 103.992 103.84 99.3733 103.84C94.7546 103.84 93.8167 103.84 93.2681 100.03V100.111C92.7195 97.1792 85.9064 53.8699 85.9064 53.8699C85.5968 52.6776 85.4375 51.5659 85.4375 50.8577C85.4375 48.0786 86.6143 48.24 89.1183 48.24H89.6669C92.3302 48.24 94.7546 48.24 95.1439 50.6963C95.2235 52.3638 99.0548 83.7677 99.0548 83.7677C100.621 72.5885 103.514 51.9604 103.753 50.777C104.222 48.24 105.24 48.24 108.761 48.24C115.495 48.24 116.273 48.24 116.671 54.6678C116.981 60.1453 119.724 84.3325 119.724 84.3325L124.343 51.5749C124.652 49.513 124.652 48.0069 129.51 48.0876L129.519 48.0696Z" fill="#FEC800"></path></g><defs><clipPath id="clip0_1_43"><rect width="164" height="161" fill="white"></rect></clipPath></defs></svg>